<svg xmlns="http://www.w3.org/2000/svg" viewBox="0 0 720 280" shape-rendering="crispEdges"><rect width="720" height="280" fill="#202c50"/><rect x="0" y="8" width="4" height="4" fill="#eee6bb"/><rect x="97" y="51" width="2" height="2" fill="#eee6bb"/><rect x="194" y="94" width="2" height="2" fill="#eee6bb"/><rect x="291" y="137" width="4" height="4" fill="#eee6bb"/><rect x="388" y="180" width="2" height="2" fill="#eee6bb"/><rect x="485" y="33" width="2" height="2" fill="#eee6bb"/><rect x="582" y="76" width="4" height="4" fill="#eee6bb"/><rect x="679" y="119" width="2" height="2" fill="#eee6bb"/><rect x="56" y="162" width="2" height="2" fill="#eee6bb"/><rect x="153" y="15" width="4" height="4" fill="#eee6bb"/><rect x="250" y="58" width="2" height="2" fill="#eee6bb"/><rect x="347" y="101" width="2" height="2" fill="#eee6bb"/><rect x="444" y="144" width="4" height="4" fill="#eee6bb"/><rect x="541" y="187" width="2" height="2" fill="#eee6bb"/><rect x="638" y="40" width="2" height="2" fill="#eee6bb"/><rect x="15" y="83" width="4" height="4" fill="#eee6bb"/><rect x="112" y="126" width="2" height="2" fill="#eee6bb"/><rect x="209" y="169" width="2" height="2" fill="#eee6bb"/><rect x="306" y="22" width="4" height="4" fill="#eee6bb"/><rect x="403" y="65" width="2" height="2" fill="#eee6bb"/><rect x="500" y="108" width="2" height="2" fill="#eee6bb"/><rect x="597" y="151" width="4" height="4" fill="#eee6bb"/><rect x="694" y="194" width="2" height="2" fill="#eee6bb"/><rect x="71" y="47" width="2" height="2" fill="#eee6bb"/><rect x="168" y="90" width="4" height="4" fill="#eee6bb"/><rect x="265" y="133" width="2" height="2" fill="#eee6bb"/><rect x="362" y="176" width="2" height="2" fill="#eee6bb"/><rect x="459" y="29" width="4" height="4" fill="#eee6bb"/><rect x="556" y="72" width="2" height="2" fill="#eee6bb"/><rect x="653" y="115" width="2" height="2" fill="#eee6bb"/><rect x="30" y="158" width="4" height="4" fill="#eee6bb"/><rect x="127" y="11" width="2" height="2" fill="#eee6bb"/><rect x="224" y="54" width="2" height="2" fill="#eee6bb"/><rect x="321" y="97" width="4" height="4" fill="#eee6bb"/><rect x="418" y="140" width="2" height="2" fill="#eee6bb"/><rect x="515" y="183" width="2" height="2" fill="#eee6bb"/><rect x="612" y="36" width="4" height="4" fill="#eee6bb"/><rect x="709" y="79" width="2" height="2" fill="#eee6bb"/><rect x="86" y="122" width="2" height="2" fill="#eee6bb"/><rect x="183" y="165" width="4" height="4" fill="#eee6bb"/><rect x="280" y="18" width="2" height="2" fill="#eee6bb"/><rect x="377" y="61" width="2" height="2" fill="#eee6bb"/><path d="M506 48h48v12h12v36h-12v12h-48V96h-12V60h12z" fill="#d7c4e4"/><path d="M478 84h104v8H478z" fill="#9b87c0"/><path d="M-210 280v-60h30v-40h30v-40h30v-40h30v40h30v40h30v40h30v60z" fill="#655b94"/><path d="M0 280v-60h30v-40h30v-40h30v-40h30v40h30v40h30v40h30v60z" fill="#655b94"/><path d="M210 280v-60h30v-40h30v-40h30v-40h30v40h30v40h30v40h30v60z" fill="#655b94"/><path d="M420 280v-60h30v-40h30v-40h30v-40h30v40h30v40h30v40h30v60z" fill="#655b94"/><path d="M630 280v-60h30v-40h30v-40h30v-40h30v40h30v40h30v40h30v60z" fill="#655b94"/><path d="M840 280v-60h30v-40h30v-40h30v-40h30v40h30v40h30v40h30v60z" fill="#655b94"/><path d="M0 280v-30h20v-28h30v-20h36v20h28v28h26v30z" fill="#40476d"/><path d="M140 280v-30h20v-28h30v-20h36v20h28v28h26v30z" fill="#40476d"/><path d="M280 280v-30h20v-28h30v-20h36v20h28v28h26v30z" fill="#40476d"/><path d="M420 280v-30h20v-28h30v-20h36v20h28v28h26v30z" fill="#40476d"/><path d="M560 280v-30h20v-28h30v-20h36v20h28v28h26v30z" fill="#40476d"/><path d="M700 280v-30h20v-28h30v-20h36v20h28v28h26v30z" fill="#40476d"/></svg>